<?xml version="1.0" encoding="UTF-8" standalone="no"?>
<!-- Created with Inkscape (http://www.inkscape.org/) -->

<svg
   width="210mm"
   height="297mm"
   viewBox="0 0 210 297"
   version="1.1"
   id="svg1"
   xmlns:xlink="http://www.w3.org/1999/xlink"
   xmlns="http://www.w3.org/2000/svg"
   xmlns:svg="http://www.w3.org/2000/svg">
  <defs
     id="defs1">
    <marker
       style="overflow:visible"
       id="Triangle"
       refX="0"
       refY="0"
       orient="auto-start-reverse"
       markerWidth="1"
       markerHeight="1"
       viewBox="0 0 1 1"
       preserveAspectRatio="xMidYMid">
      <path
         transform="scale(0.5)"
         style="fill:context-stroke;fill-rule:evenodd;stroke:context-stroke;stroke-width:1pt"
         d="M 5.77,0 -2.88,5 V -5 Z"
         id="path135" />
    </marker>
    <symbol
       id="user"
       viewBox="0 0 10000 10000">
      <title
         id="title707">user</title>
      <path
         d="m 1280,1399 c 0,146 -96,265 -213,265 H 213 C 96,1664 0,1545 0,1399 0,1136 65,832 327,832 c 81,79 191,128 313,128 122,0 232,-49 313,-128 262,0 327,304 327,567 z M 1024,512 C 1024,724 852,896 640,896 428,896 256,724 256,512 256,300 428,128 640,128 c 212,0 384,172 384,384 z"
         id="path708" />
    </symbol>
    <symbol
       viewBox="0 0 24 24"
       id="ic_watch_24px">
      <title
         id="title1">ic_watch_24px_inkscape_duplicate</title>
      <path
         d="M 20,12 C 20,9.46 18.81,7.19 16.96,5.73 L 16,0 H 8 L 7.05,5.73 C 5.19,7.19 4,9.45 4,12 c 0,2.55 1.19,4.81 3.05,6.27 L 8,24 h 8 l 0.96,-5.73 A 7.976,7.976 0 0 0 20,12 Z M 6,12 c 0,-3.31 2.69,-6 6,-6 3.31,0 6,2.69 6,6 0,3.31 -2.69,6 -6,6 -3.31,0 -6,-2.69 -6,-6 z"
         id="path49" />
    </symbol>
    <symbol
       viewBox="0 0 24 24"
       id="ic_computer_24px">
      <title
         id="title1-0">ic_computer_24px_inkscape_duplicate</title>
      <path
         d="m 20,18 c 1.1,0 1.99,-0.9 1.99,-2 L 22,6 C 22,4.9 21.1,4 20,4 H 4 C 2.9,4 2,4.9 2,6 v 10 c 0,1.1 0.9,2 2,2 H 0 v 2 H 24 V 18 Z M 4,6 H 20 V 16 H 4 Z"
         id="path3" />
    </symbol>
    <symbol
       viewBox="0 0 24 24"
       id="ic_phone_android_24px">
      <title
         id="title1-6">ic_phone_android_24px_inkscape_duplicate</title>
      <path
         d="M 16,1 H 8 C 6.34,1 5,2.34 5,4 v 16 c 0,1.66 1.34,3 3,3 h 8 c 1.66,0 3,-1.34 3,-3 V 4 C 19,2.34 17.66,1 16,1 Z m -2,20 h -4 v -1 h 4 z m 3.25,-3 H 6.75 V 4 h 10.5 z"
         id="path30" />
    </symbol>
    <symbol
       viewBox="0 0 24 24"
       id="ic_business_24px">
      <title
         id="title1-7">ic_business_24px_inkscape_duplicate</title>
      <path
         d="M 12,7 V 3 H 2 V 21 H 22 V 7 Z M 6,19 H 4 V 17 H 6 Z M 6,15 H 4 V 13 H 6 Z M 6,11 H 4 V 9 H 6 Z M 6,7 H 4 V 5 h 2 z m 4,12 H 8 v -2 h 2 z m 0,-4 H 8 v -2 h 2 z m 0,-4 H 8 V 9 h 2 z M 10,7 H 8 V 5 h 2 z m 10,12 h -8 v -2 h 2 v -2 h -2 v -2 h 2 V 11 H 12 V 9 h 8 z m -2,-8 h -2 v 2 h 2 z m 0,4 h -2 v 2 h 2 z"
         id="path1" />
    </symbol>
    <symbol
       viewBox="0 0 24 24"
       id="ic_desktop_mac_24px">
      <title
         id="title1-3">ic_desktop_mac_24px_inkscape_duplicate</title>
      <path
         d="M 21,2 H 3 C 1.9,2 1,2.9 1,4 v 12 c 0,1.1 0.9,2 2,2 h 7 l -2,3 v 1 h 8 v -1 l -2,-3 h 7 c 1.1,0 2,-0.9 2,-2 V 4 C 23,2.9 22.1,2 21,2 Z m 0,12 H 3 V 4 h 18 z"
         id="path4" />
    </symbol>
  </defs>
  <g
     id="layer1">
    <use
       xlink:href="#user"
       width="10000"
       height="10000"
       style="fill:#ffffff;fill-opacity:1;stroke:#ffffff;stroke-opacity:1"
       id="use1"
       transform="matrix(0.01119549,0,0,0.01119549,67.606493,33.380611)" />
    <use
       xlink:href="#user"
       width="10000"
       height="10000"
       style="fill:#ffffff;fill-opacity:1;stroke:#ffffff;stroke-opacity:1"
       id="use1-8"
       transform="matrix(0.01119549,0,0,0.01119549,67.606493,55.693831)" />
    <use
       xlink:href="#user"
       width="10000"
       height="10000"
       style="fill:#ffffff;fill-opacity:1;stroke:#ffffff;stroke-opacity:1"
       id="use1-8-6"
       transform="matrix(0.01119549,0,0,0.01119549,67.606493,78.00705)" />
    <use
       xlink:href="#ic_watch_24px"
       width="24"
       height="24"
       style="fill:#000000;stroke:none"
       id="use1-1"
       transform="matrix(0.26458333,0,0,0.26458333,122.5402,206.99049)" />
    <use
       xlink:href="#ic_computer_24px"
       width="24"
       height="24"
       style="fill:#000000;stroke:none"
       id="use1-3"
       transform="matrix(0.26458333,0,0,0.26458333,140.83232,218.57171)" />
    <use
       xlink:href="#ic_phone_android_24px"
       width="24"
       height="24"
       style="fill:#000000;stroke:none"
       id="use1-6"
       transform="matrix(0.26458333,0,0,0.26458333,120.09728,232.33583)" />
    <use
       xlink:href="#ic_business_24px"
       width="24"
       height="24"
       style="fill:#ffffff;fill-opacity:1;stroke:#ffffff;stroke-opacity:1"
       id="use1-2"
       transform="matrix(1.4601612,0,0,1.4601612,164.20577,50.243435)" />
    <use
       xlink:href="#ic_desktop_mac_24px"
       width="24"
       height="24"
       style="fill:#000000;stroke:none"
       id="use1-5"
       transform="matrix(0.26458333,0,0,0.26458333,94.437029,215.68625)" />
    <path
       style="fill:#ffffff;fill-opacity:1;stroke:#ffffff;stroke-width:1.2;stroke-dasharray:none;stroke-opacity:1"
       d="M 86.304288,43.659437 159.38494,68.10793"
       id="path2" />
    <path
       style="fill:#ffffff;fill-opacity:1;stroke:#ffffff;stroke-width:1.2;stroke-dasharray:none;stroke-opacity:1;marker-end:url(#Triangle)"
       d="m 86.393482,68.249126 74.884958,0.09629"
       id="path2-7" />
    <path
       style="fill:#ffffff;fill-opacity:1;stroke:#ffffff;stroke-width:1.2;stroke-dasharray:none;stroke-opacity:1"
       d="M 86.646991,94.352178 159.44675,68.395594"
       id="path2-7-0" />
  </g>
</svg>
